<?xml version="1.0" encoding="UTF-8"?>
<!-- Generator: Adobe Illustrator 28.0.0, SVG Export Plug-In . SVG Version: 6.00 Build 0)  -->
<svg version="1.0" id="Laag_1" xmlns="http://www.w3.org/2000/svg" xmlns:xlink="http://www.w3.org/1999/xlink" x="0px" y="0px" viewBox="0 0 50 50" style="enable-background:new 0 0 50 50;" xml:space="preserve">
<style type="text/css">
	.st0{fill:#FFFFFF;}
</style>
<g>
	<circle class="st0" cx="25" cy="25" r="25"/>
	<path d="M26.58,25l10.9-10.9c0.26-0.26,0.28-0.65,0.06-0.88l-0.77-0.77c-0.23-0.23-0.62-0.2-0.88,0.06L25,23.42l-10.9-10.9   c-0.26-0.26-0.65-0.28-0.88-0.06l-0.77,0.77c-0.23,0.23-0.2,0.62,0.06,0.88L23.42,25l-10.9,10.9c-0.26,0.26-0.28,0.65-0.06,0.88   l0.77,0.77c0.23,0.23,0.62,0.2,0.88-0.06L25,26.58l10.9,10.9c0.26,0.26,0.65,0.28,0.88,0.06l0.77-0.77   c0.23-0.23,0.2-0.62-0.06-0.88L26.58,25z"/>
</g>
</svg>